<?xml version="1.0" encoding="UTF-8"?><svg id="Layer_1" xmlns="http://www.w3.org/2000/svg" viewBox="0 0 500 250"><path d="M64.08,82.3c.73-6.32,5.88-11.84,11.98-13.4,5.78-1.49,10.18-.13,14.88,3.22,11.81,8.42,22.92,19.65,34.8,27.67,5.9,3.98,12.68,4.42,18.98.98,8.35-4.55,16.47-12.11,24.76-16.98,12.36-7.24,27.86,1.93,24.86,16.58-2.68,13.1-8.76,26.88-11.73,40.06-3.3,9.56-13.55,14.58-23.32,12.15-10.25-2.55-14.65-14.14-26.68-13.45-11.01.63-19.26,13.98-30.73,15.13h-3.72c-1.68-.45-3.4-.63-5.04-1.2-4.68-1.64-8.92-5.57-10.88-10.12l-18.14-57.17c.09-1.11-.12-2.37,0-3.46h-.01ZM181.33,94.33c-1.07-.9-3.43-1.23-4.68-.46-8.35,5.05-16.13,11.75-24.42,16.78-11.69,7.1-23.97,6.23-34.91-1.7-11.9-8.61-23.04-19.07-34.95-27.77-2.1-1.23-5.61-.04-5.79,2.57l17.04,54.16c1.46,2.9,4.35,4.25,7.57,3.83,3.38-.45,12.7-8.1,16.3-10.28,10.88-6.6,23.28-6.16,33.69,1.06,3.54,2.44,9.06,8.48,13.28,8.38,4.58-.12,5.91-2.93,7.12-6.69,3.56-10.96,7.08-23.18,10.02-34.32.5-1.91,1.56-4.01-.28-5.55Z"/><path d="M217.86,100.88l5.86,16.73.59-.34,7.52-16.38c.61,0,.94,1.06,1.16,1.5,2.32,4.64,4.62,9.76,6.74,14.51.15.32.22.65.21.99l6.38-16.99h6.38l-11.45,31.06-1.03-.42-8.14-17.36-9.05,18.04-11.58-31.33h6.4Z"/><polygon points="323.49 100.88 323.49 131.95 317.37 131.95 317.37 116.54 307.66 127.95 297.96 116.54 297.96 131.95 291.84 131.95 291.84 100.88 307.4 118.67 323.49 100.88"/><polygon points="283.32 100.88 283.32 105.79 282.92 106.19 266.02 106.19 266.02 113.89 281.19 113.89 281.19 119.47 266.02 119.47 266.02 126.63 283.32 126.63 283.32 131.95 260.17 131.95 260.17 100.88 283.32 100.88"/><path d="M390.25,104.1c.32.54-2.51,4.13-3.07,4.72-3.8-1.82-7.74-4.21-12.06-2.23-2.93,1.35-2.99,3.94-.07,5.37,5.22,2.55,15.42,1.2,16.7,9.09,2.07,12.79-13.59,13.64-21.87,9.09-.7-.38-3.46-1.79-3.09-2.61.17-.37,2.86-4.31,3.13-4.31,3.75,2.82,9.6,5.58,14.11,2.9,1.44-.86,2.48-2.64,1.57-4.23-1.48-2.6-8.88-2.92-11.81-3.88-9.43-3.11-9.35-14.52,0-16.98,5.88-1.54,11.57-.42,16.46,3.09h-.01Z"/><path d="M362.6,131.95h-6.65l-2.1-4.62-14.75-.12-2.31,4.74h-6.65l16.36-31.06,16.11,31.06h-.01ZM346.64,112.84c-.62-.13-.42.08-.59.34-1.6,2.45-2.44,5.91-4.06,8.43-.28.83,1.54.25,2.11.24,2.14-.04,4.46-.13,6.53.28l-4-9.29h.01Z"/><path d="M418.21,100.88h6.91l-11.71,19.24v11.82h-6.12v-11.82c0-1-9.27-14.8-10.59-17.04-.4-.67-.87-1.48-1.12-2.2h6.78l7.98,13.01,7.85-13.01h.03Z"/></svg>