<?xml version="1.0" encoding="UTF-8"?><svg id="Layer_1" xmlns="http://www.w3.org/2000/svg" viewBox="0 0 500 250"><g id="QWxlvF.tif"><path d="M196.62,101.14l7.06,26.28,7.66-25.66c1.03-1.4,9.62-.28,11.84-.59l7.4,26.9,7.06-26.92h13.78l-15.04,44.9-11.82-.11-7.44-28.14-7.44,28.14-12.78-.22-13.43-44.56h13.14Z"/><path d="M287.97,146c-.18-.18.13-2.51,0-3.21-7.03,7.49-19.32,6.32-26.92.33-7.47-5.9-10-14.29-8.9-23.65,1.85-15.63,23.93-26.84,35.83-14.48.15-.55-.18-3.84,0-3.84h13.47v44.86c-1.86-.36-12.99.47-13.47,0h0ZM273.69,112.83c-8.78,1.62-11.11,14.25-4,19.71,10.2,7.84,23.78-4.62,16.62-15.33-2.8-4.18-7.86-5.26-12.62-4.38h0Z"/><polygon points="72.59 140.87 111.36 76.15 131.52 105.88 85.09 140.87 72.59 140.87"/><polygon points="95.66 140.87 158.16 94.1 154.64 140.87 95.66 140.87"/><polygon points="412.96 101.14 419.37 112.68 427.38 101.14 443.09 101.14 428.35 121.96 445.01 146 428.34 146 419.37 132.55 410.72 146 394.37 146 411.02 121.96 397.55 103.41 396.93 101.14 412.96 101.14"/><path d="M341.16,101.14v11.21c0,1.44-15.6,19.79-16.66,23.39h16.66v10.25h-33.33v-9.29c0-1.93,17.32-21.22,18.59-25.31h-18.59v-10.25h33.33Z"/><rect x="68.11" y="146" width="86.53" height="10.25"/><path d="M395.01,113.32c-2.27-.13-5.72.44-7.65,1.65-.88.55-3.24,3.76-3.24,4.45v26.59h-13.47v-44.86h12.82c.2,0-.41,3.4.32,3.84.59-2.51,11.23-7.33,11.23-4.17v12.49h0Z"/><path d="M361.04,101.14v44.86h-13.14c-.07,0-.96-.9-.96-.96v-42.93c0-.07.9-.96.96-.96h13.14Z"/><polygon points="86.05 106.29 68.11 135.11 64.9 92.82 86.05 106.29"/><path d="M351.87,85.91c9.25-2.76,11.13,10.84,3.06,11.44-7.98.58-8.51-9.81-3.06-11.44Z"/></g></svg>