<?xml version="1.0" encoding="UTF-8"?><svg id="Layer_1" xmlns="http://www.w3.org/2000/svg" viewBox="0 0 500 250"><path d="M82.67,128.27h4.14v5.22c-1.52.66-3.02.99-4.51.99-2.04,0-3.67-.59-4.88-1.79-1.21-1.19-1.83-2.66-1.83-4.39,0-1.85.63-3.38,1.9-4.59,1.27-1.23,2.85-1.83,4.75-1.83.7,0,1.35.07,1.98.22.62.16,1.41.42,2.36.83v1.81c-1.46-.86-2.93-1.28-4.37-1.28-1.35,0-2.48.46-3.4,1.37-.92.91-1.38,2.04-1.38,3.38,0,1.4.46,2.55,1.38,3.43.92.88,2.11,1.33,3.56,1.33.7,0,1.54-.16,2.53-.49l.17-.05v-2.56h-2.37v-1.57l-.03-.03Z"/><path d="M95.97,121.85c1.9,0,3.48.61,4.75,1.81,1.27,1.2,1.9,2.72,1.9,4.52s-.63,3.32-1.91,4.51c-1.28,1.19-2.89,1.79-4.83,1.79s-3.4-.59-4.64-1.79c-1.24-1.19-1.85-2.68-1.85-4.47s.62-3.36,1.86-4.56c1.25-1.2,2.82-1.81,4.72-1.81M96.03,123.52c-1.41,0-2.57.45-3.48,1.32-.91.88-1.36,2-1.36,3.38s.45,2.43,1.36,3.31,2.06,1.32,3.42,1.32,2.52-.45,3.43-1.35c.92-.9,1.38-2.02,1.38-3.35s-.46-2.4-1.38-3.3c-.92-.88-2.04-1.33-3.38-1.33"/><polygon points="112.39 122.02 114.16 122.02 108.94 134.39 108.54 134.39 103.23 122.02 105.01 122.02 108.71 130.67 112.39 122.02"/><polygon points="116.04 122.02 123.02 122.02 123.02 123.59 117.8 123.59 117.8 127.35 122.83 127.35 122.83 128.92 117.8 128.92 117.8 132.75 123.18 132.75 123.18 134.31 116.04 134.31 116.04 122.02"/><path d="M125.66,134.34v-12.32h3.09c1.24,0,2.24.32,2.97.92.73.62,1.09,1.45,1.09,2.51,0,.73-.17,1.33-.53,1.86-.36.53-.87.91-1.54,1.17.4.25.78.61,1.15,1.06.38.45.91,1.23,1.58,2.33.44.7.78,1.23,1.03,1.58l.66.88h-2.1l-.54-.82s-.05-.08-.11-.16l-.34-.47-.54-.91-.59-.96c-.36-.5-.69-.91-.99-1.2-.3-.3-.58-.51-.83-.65-.24-.13-.65-.2-1.23-.2h-.46v5.36h-1.77ZM127.95,123.52h-.53v3.89h.67c.88,0,1.5-.08,1.83-.22.33-.16.59-.38.78-.7s.28-.66.28-1.06-.11-.74-.32-1.06-.5-.54-.87-.66c-.37-.13-.99-.2-1.85-.2"/><polygon points="146.83 122.02 148.5 122.02 148.5 134.34 146.99 134.34 138.76 124.85 138.76 134.34 137.09 134.34 137.09 122.02 138.53 122.02 146.83 131.59 146.83 122.02"/><polygon points="161.47 122.02 163.12 122.02 163.12 134.34 161.34 134.34 161.34 124.76 157.56 129.51 157.23 129.51 153.4 124.76 153.4 134.34 151.64 134.34 151.64 122.02 153.3 122.02 157.39 127.08 161.47 122.02"/><polygon points="166.31 122.02 173.29 122.02 173.29 123.59 168.08 123.59 168.08 127.35 173.12 127.35 173.12 128.92 168.08 128.92 168.08 132.75 173.46 132.75 173.46 134.31 166.31 134.31 166.31 122.02"/><polygon points="185.66 122.02 187.32 122.02 187.32 134.34 185.82 134.34 177.59 124.85 177.59 134.34 175.93 134.34 175.93 122.02 177.35 122.02 185.66 131.59 185.66 122.02"/><polygon points="189.46 122 199.75 122 199.75 123.57 195.45 123.57 195.45 134.34 193.68 134.34 193.68 123.57 189.46 123.57 189.46 122"/><path d="M213.54,121.85c1.9,0,3.48.61,4.75,1.81,1.27,1.2,1.9,2.72,1.9,4.52s-.65,3.32-1.91,4.51c-1.28,1.19-2.89,1.79-4.83,1.79s-3.4-.59-4.63-1.79c-1.24-1.19-1.86-2.68-1.86-4.47s.62-3.36,1.87-4.56,2.81-1.81,4.72-1.81M213.61,123.52c-1.41,0-2.57.45-3.48,1.32-.91.88-1.36,2-1.36,3.38s.45,2.43,1.36,3.31,2.04,1.32,3.42,1.32,2.52-.45,3.44-1.35c.92-.9,1.38-2.02,1.38-3.35s-.46-2.4-1.38-3.3c-.92-.88-2.04-1.33-3.39-1.33"/><polygon points="222.92 122.02 229.49 122.02 229.49 123.59 224.68 123.59 224.68 127.03 229.49 127.03 229.49 128.6 224.68 128.6 224.68 134.34 222.92 134.34 222.92 122.02"/><path d="M237.49,134.32v-12.29h4.14c1.68,0,3.01.25,3.97.75.98.5,1.75,1.24,2.32,2.22.58.98.87,2.03.87,3.18,0,.83-.16,1.61-.47,2.36-.32.75-.76,1.41-1.36,1.99-.59.58-1.29,1.03-2.08,1.33-.46.18-.88.3-1.27.37-.4.07-1.13.09-2.23.09h-3.89ZM241.46,123.6h-2.2v9.15h2.26c.88,0,1.56-.07,2.06-.18.49-.12.9-.28,1.21-.46.33-.18.63-.41.9-.69.87-.88,1.31-1.99,1.31-3.34s-.45-2.4-1.33-3.23c-.33-.32-.71-.57-1.13-.77-.42-.2-.83-.33-1.21-.4s-.99-.09-1.85-.09"/><path d="M260.11,122.02h1.78v6.99c0,.95-.07,1.66-.2,2.15-.15.49-.32.88-.51,1.2s-.45.61-.74.86c-.98.84-2.26,1.27-3.83,1.27s-2.89-.42-3.86-1.25c-.29-.26-.54-.55-.74-.86-.2-.32-.37-.71-.5-1.19-.13-.46-.2-1.19-.2-2.19v-6.96h1.77v6.99c0,1.16.13,1.97.4,2.41.28.45.66.82,1.2,1.09s1.19.41,1.91.41c1.04,0,1.9-.28,2.56-.82.34-.29.59-.63.75-1.04s.22-1.09.22-2.06v-6.99h-.01Z"/><path d="M269.02,134.34h-4.16v-12.32h3.22c1.02,0,1.81.13,2.37.41.57.28,1,.65,1.31,1.12.29.47.45,1.03.45,1.66,0,1.2-.62,2.07-1.87,2.6.9.17,1.61.54,2.14,1.11.54.57.8,1.25.8,2.04,0,.63-.16,1.19-.47,1.68-.33.5-.79.9-1.44,1.21-.62.32-1.4.47-2.35.47M268.14,123.59h-1.52v3.69h1.17c.94,0,1.61-.18,2-.54.41-.36.59-.82.59-1.4,0-1.17-.75-1.77-2.26-1.77M268.27,128.86h-1.65v3.9h1.74c.96,0,1.61-.08,1.97-.22.34-.15.62-.38.83-.7s.32-.66.32-1.03-.11-.71-.33-1.03-.53-.54-.94-.7c-.41-.15-1.06-.22-1.93-.22"/><path d="M279.87,121.95h1.24l5.53,12.39h-1.81l-1.65-3.65h-5.25l-1.54,3.65h-1.81l5.29-12.39h0ZM282.44,129.11l-1.98-4.46-1.85,4.46h3.83Z"/><rect x="288.52" y="122.02" width="1.77" height="12.32"/><polygon points="93.09 146.04 96.03 146.04 96.03 167.99 92.88 167.99 92.88 150.92 86.13 159.4 85.55 159.4 78.73 150.92 78.73 167.99 75.57 167.99 75.57 146.04 78.55 146.04 85.85 155.06 93.09 146.04"/><polygon points="101.72 146.04 114.17 146.04 114.17 148.85 104.87 148.85 104.87 155.53 113.85 155.53 113.85 158.34 104.87 158.34 104.87 165.16 114.47 165.16 114.47 167.96 101.72 167.96 101.72 146.04"/><path d="M118.81,167.96v-21.92h7.4c2.98,0,5.34.45,7.08,1.35,1.74.9,3.13,2.22,4.14,3.94,1.03,1.74,1.54,3.64,1.54,5.7,0,1.46-.28,2.88-.86,4.21-.55,1.35-1.37,2.52-2.41,3.54-1.07,1.06-2.31,1.83-3.72,2.37-.82.33-1.58.54-2.28.66-.69.11-2,.16-3.96.16h-6.95.01ZM125.88,148.85h-3.93v16.33h4.02c1.57,0,2.8-.11,3.67-.33.87-.21,1.6-.49,2.16-.82.58-.33,1.12-.74,1.6-1.21,1.56-1.57,2.32-3.56,2.32-5.95s-.79-4.27-2.39-5.76c-.58-.55-1.25-1.02-2.02-1.37-.75-.36-1.48-.59-2.16-.7-.67-.12-1.77-.17-3.28-.17"/><rect x="143.9" y="146.04" width="3.14" height="21.95"/><path d="M159.89,145.92h2.22l9.84,22.07h-3.22l-2.92-6.5h-9.37l-2.74,6.5h-3.23l9.43-22.07h-.01ZM164.5,158.69l-3.55-7.94-3.28,7.94h6.83Z"/><path d="M195.99,145.73c3.39,0,6.21,1.07,8.47,3.22,2.26,2.15,3.38,4.84,3.38,8.07s-1.13,5.91-3.42,8.03c-2.28,2.12-5.14,3.19-8.61,3.19s-6.07-1.07-8.27-3.19c-2.2-2.12-3.31-4.77-3.31-7.97s1.11-5.99,3.32-8.14,5.03-3.22,8.42-3.22M196.11,148.71c-2.51,0-4.58.79-6.2,2.35-1.61,1.57-2.43,3.57-2.43,6.01s.8,4.34,2.43,5.91c1.62,1.57,3.65,2.36,6.09,2.36s4.48-.8,6.13-2.4c1.64-1.61,2.45-3.6,2.45-5.99s-.82-4.29-2.45-5.87-3.65-2.37-6.03-2.37"/><polygon points="212.7 146.04 224.4 146.04 224.4 148.85 215.84 148.85 215.84 154.97 224.4 154.97 224.4 157.76 215.84 157.76 215.84 167.99 212.7 167.99 212.7 146.04"/><polygon points="228.77 146.04 240.45 146.04 240.45 148.85 231.91 148.85 231.91 154.97 240.45 154.97 240.45 157.76 231.91 157.76 231.91 167.99 228.77 167.99 228.77 146.04"/><rect x="244.82" y="146.04" width="3.14" height="21.95"/><path d="M272.72,162.89v3.46c-2.31,1.27-4.96,1.89-7.98,1.89-2.45,0-4.54-.49-6.24-1.48s-3.06-2.33-4.05-4.06-1.49-3.6-1.49-5.61c0-3.19,1.13-5.88,3.42-8.06s5.09-3.27,8.43-3.27c2.31,0,4.87.59,7.69,1.81v3.38c-2.56-1.46-5.08-2.2-7.53-2.2s-4.6.79-6.27,2.37-2.48,3.57-2.48,5.96.82,4.39,2.45,5.94c1.64,1.56,3.72,2.32,6.27,2.32s5.26-.82,7.8-2.45"/><polygon points="277.56 146.04 290 146.04 290 148.85 280.7 148.85 280.7 155.53 289.68 155.53 289.68 158.34 280.7 158.34 280.7 165.16 290.29 165.16 290.29 167.96 277.56 167.96 277.56 146.04"/><path d="M82.26,109.6c-.34,0-.61.12-.83.36-.22.24-.33.51-.33.86s.11.62.33.86c.21.24.49.36.83.36s.61-.12.83-.36c.21-.24.33-.53.33-.86s-.11-.62-.33-.86-.5-.36-.83-.36"/><path d="M85.2,109.62c-.33,0-.61.12-.83.34-.22.24-.34.51-.34.84s.12.62.34.87c.22.24.5.36.83.36s.61-.12.82-.36c.21-.24.32-.53.32-.87s-.11-.61-.32-.84c-.21-.22-.47-.34-.82-.34"/><path d="M122.33,109.57c-.32,0-.59.11-.79.34-.21.22-.33.49-.33.79s.12.59.33.83c.2.24.47.34.79.34s.58-.12.78-.34c.2-.24.3-.5.3-.83,0-.3-.11-.57-.3-.79-.2-.22-.46-.34-.78-.34"/><path d="M122.7,106.53h-30.15v-3.14c0-.73-.07-1.37-.18-1.93-.13-.54-.36-1.02-.67-1.38-.32-.37-.73-.66-1.25-.86s-1.17-.29-1.95-.29c-.49,0-.98.03-1.45.09s-.99.16-1.5.28v7.23h-2.4c-1.15,0-2.08-.11-2.84-.33-.74-.21-1.33-.53-1.75-.92s-.74-.86-.88-1.4c-.17-.54-.25-1.13-.25-1.78,0-.54.04-1.04.12-1.49s.2-.92.34-1.41l-1.9.38c-.11.42-.2.87-.28,1.38-.08.5-.12.96-.12,1.37,0,.87.13,1.66.4,2.36s.67,1.31,1.25,1.81c.57.49,1.32.88,2.23,1.15s2.02.41,3.34.41h4.47v-7.61c.12-.03.29-.05.51-.07.22,0,.41-.01.54-.01.84,0,1.46.24,1.89.73.41.47.62,1.25.62,2.32v4.64h33.61v-8.84h-1.74v7.32h.01Z"/><path d="M132.74,101.03c-.58-.63-1.27-1.16-2.07-1.6s-1.7-.75-2.66-.95l-.17,1.83c1.71.49,2.98,1.23,3.79,2.22s1.2,2.32,1.2,4.01h-6.08v1.52h7.82v-2.06c0-1-.16-1.94-.47-2.77s-.77-1.57-1.33-2.2"/><path d="M151.89,97.63c.33,0,.61-.12.82-.36.21-.25.32-.54.32-.87s-.11-.62-.32-.84-.49-.34-.82-.34-.61.12-.83.34c-.22.22-.34.51-.34.84s.12.62.34.87c.22.24.5.36.83.36"/><path d="M148.95,97.61c.33,0,.61-.12.83-.36.21-.24.33-.53.33-.86s-.11-.62-.33-.86-.5-.36-.83-.36-.61.12-.83.36c-.21.24-.33.53-.33.86s.11.62.33.86.5.36.83.36"/><path d="M187.67,100c-.33-.37-.71-.63-1.16-.8s-.96-.26-1.53-.26c-.66,0-1.25.11-1.78.3-.53.21-.99.51-1.37.92-.4.41-.69.92-.9,1.54s-.32,1.36-.32,2.2c0,.51-.05.94-.16,1.28s-.25.61-.44.8-.38.34-.62.41c-.22.08-.47.12-.71.12h-25.19v-7.31c-.53-.09-1.02-.16-1.48-.21-.45-.05-.96-.08-1.54-.08-.67,0-1.31.12-1.87.34-.58.24-1.08.55-1.5.98-.42.41-.75.91-.99,1.5-.24.58-.36,1.24-.36,1.95,0,.65.11,1.23.29,1.75.2.53.47.99.86,1.37.38.38.84.69,1.4.9.55.21,1.2.32,1.91.32h28.25c.78,0,1.4-.17,1.86-.51.45-.33.77-.78.95-1.31.3.54.77.98,1.37,1.31.61.34,1.45.51,2.53.51h3.5v-4.6c0-.79-.08-1.48-.26-2.04-.17-.57-.42-1.03-.74-1.4M151.77,106.53h-1.33c-.94,0-1.65-.28-2.14-.82-.49-.55-.73-1.35-.73-2.39,0-.44.07-.83.21-1.19.13-.36.33-.67.57-.94.24-.26.53-.47.84-.62.33-.15.67-.22,1.06-.22h.3c.13,0,.26,0,.41.01.15,0,.29.03.44.04s.26.04.37.07v6.05ZM186.93,106.53h-1.44c-1.06,0-1.82-.25-2.31-.77-.5-.5-.75-1.31-.75-2.41,0-.42.04-.82.13-1.17.08-.36.21-.67.41-.95.18-.26.42-.47.71-.63s.63-.24,1.04-.24c.36,0,.67.07.95.21.28.15.51.34.7.59.18.25.33.54.42.87.09.34.15.7.15,1.07v3.43h-.01Z"/><path d="M288.56,93.99v12.54h-27.2v-2.62c0-.92-.16-1.7-.49-2.31-.32-.61-.74-1.08-1.25-1.44-.53-.34-1.12-.59-1.78-.73-.66-.13-1.35-.2-2.03-.2-.41,0-.75,0-1.04.01-.28.01-.54.03-.75.07l-.2,1.52c.22-.03.47-.04.78-.05s.63-.03.99-.03c1.35,0,2.35.28,3.02.82s1,1.46,1,2.77v2.2h-31.64v-.3c0-1.85-.44-3.39-1.32-4.63-.88-1.24-2.11-2.11-3.68-2.6.54-.28,1.04-.54,1.52-.79.47-.25.94-.49,1.38-.73.45-.24.9-.47,1.33-.71.45-.24.91-.49,1.4-.74v-2.15c-.73.41-1.42.82-2.11,1.21-.69.4-1.38.79-2.06,1.19-.69.4-1.37.79-2.07,1.19-.69.4-1.4.79-2.14,1.2v1.58c1.12.12,2.06.37,2.81.78.77.4,1.38.88,1.86,1.45.47.58.82,1.21,1.03,1.91.21.7.32,1.42.32,2.15h-27v-7.29c-.53-.09-1.02-.16-1.48-.21-.47-.05-.99-.08-1.56-.08-.74,0-1.41.13-1.99.38s-1.08.61-1.48,1.04c-.41.44-.71.95-.92,1.52-.21.58-.32,1.19-.32,1.82,0,.55.08,1.08.24,1.6s.42.98.77,1.38c.36.4.8.73,1.37.98s1.25.37,2.06.37h1.58c-.04,2.04-1.27,3.06-3.68,3.06-.45,0-.9-.04-1.35-.11s-.91-.16-1.33-.26l.13,1.9c.3.05.69.09,1.13.13.46.04.87.07,1.24.07,1.08,0,1.99-.16,2.7-.47s1.28-.71,1.71-1.21c.42-.49.73-1.03.9-1.64.15-.5.21-.99.24-1.48h91.05v-14.06h-1.74.04ZM197.52,106.53h-1.33c-.92,0-1.62-.26-2.12-.8-.49-.54-.74-1.33-.74-2.39,0-.5.08-.94.26-1.31.17-.37.38-.67.65-.92.26-.25.54-.44.86-.55.32-.12.62-.18.91-.18h.3c.13,0,.26,0,.41.01.15,0,.29.03.44.04.13.01.26.04.37.07v6.03h0Z"/><path d="M119.69,73.44c-.46-.54-1.04-.94-1.7-1.19-.67-.25-1.41-.38-2.24-.38-.96,0-1.83.15-2.61.45-.79.3-1.46.75-2.02,1.36-.57.59-.99,1.36-1.31,2.27-.3.91-.46,1.98-.46,3.23,0,.75-.08,1.37-.24,1.87-.16.49-.37.9-.63,1.17-.26.29-.57.5-.9.61-.34.12-.69.17-1.04.17h-6.07v-4.6c0-1.07-.09-2-.28-2.81s-.51-1.49-.98-2.04c-.46-.55-1.07-.98-1.83-1.25s-1.71-.42-2.86-.42c-.71,0-1.42.04-2.12.15-.7.09-1.44.22-2.22.4v10.59h-3.52c-1.69,0-3.07-.16-4.16-.47-1.09-.32-1.94-.77-2.57-1.36-.63-.58-1.07-1.27-1.31-2.06s-.36-1.66-.36-2.62c0-.79.05-1.52.17-2.18.11-.67.28-1.36.51-2.07l-2.8.57c-.15.61-.28,1.28-.4,2.02-.12.75-.17,1.41-.17,2.02,0,1.28.2,2.43.58,3.47.4,1.04,1,1.91,1.83,2.64s1.93,1.29,3.27,1.69c1.33.4,2.98.61,4.88.61h6.57v-11.16c.17-.04.41-.07.74-.09.33-.01.59-.03.79-.03,1.24,0,2.16.36,2.76,1.06.61.7.91,1.83.91,3.4v6.82h8.26c1.15,0,2.07-.25,2.73-.75s1.13-1.15,1.4-1.93c.45.79,1.11,1.44,2,1.93.88.5,2.12.75,3.72.75h5.13v-6.75c0-1.16-.13-2.16-.38-2.99s-.62-1.52-1.08-2.04M118.63,83.01h-2.11c-1.54,0-2.66-.37-3.4-1.12-.73-.75-1.08-1.93-1.08-3.55,0-.62.07-1.19.18-1.71.13-.53.33-.99.61-1.38s.62-.71,1.04-.94.94-.34,1.54-.34c.53,0,.99.11,1.4.32.41.21.74.5,1.02.87.28.36.47.79.62,1.28.13.49.2,1.02.2,1.56v5.04h-.01Z"/><path d="M89.7,87.55c-.49,0-.9.17-1.23.5-.33.34-.49.75-.49,1.24s.16.91.49,1.27.74.54,1.23.54.88-.18,1.2-.54c.3-.36.47-.78.47-1.27s-.16-.91-.47-1.24c-.3-.34-.7-.5-1.2-.5"/><path d="M85.39,87.51c-.49,0-.9.17-1.21.51-.33.34-.49.77-.49,1.25s.16.91.49,1.25c.32.36.73.51,1.21.51s.9-.17,1.2-.51c.33-.34.49-.77.49-1.25s-.16-.91-.49-1.25c-.32-.34-.73-.51-1.2-.51"/><rect x="127.28" y="64.55" width="2.53" height="15.67"/><path d="M149.85,81.73c-.95-.84-1.44-2-1.44-3.48,0-1.2.34-2.19,1-2.98.66-.78,1.71-1.17,3.14-1.17.54,0,1.09.07,1.64.18s1,.25,1.38.41l.28-2.37c-.47-.15-.98-.26-1.53-.34-.54-.07-1.08-.11-1.64-.11-1.19,0-2.2.18-3.07.54-.86.36-1.58.83-2.14,1.44-.57.61-.99,1.31-1.27,2.1-.28.8-.42,1.64-.42,2.49,0,.96.15,1.82.45,2.6.3.77.69,1.42,1.19,1.97h-7.58v-.03h-.25c-1.21,0-2.12-.38-2.77-1.09.04-.11.11-.2.13-.3.25-.79.38-1.68.38-2.64v-14.4h-2.53v14.68c0,.57-.08,1.08-.22,1.56s-.41.86-.78,1.19c-.37.32-.84.57-1.45.75-.59.18-1.35.28-2.26.28-.67,0-1.38-.07-2.11-.21-.74-.15-1.41-.34-2.03-.61l-.33,2.82c.59.16,1.27.28,1.99.38.74.11,1.49.16,2.28.16,1.38,0,2.56-.16,3.51-.49.84-.29,1.52-.7,2.07-1.2.4.34.86.66,1.41.9.75.33,1.56.49,2.39.5h17.85v-2.23h-3.15c-1.78,0-3.15-.42-4.12-1.28"/><rect x="162.39" y="64.55" width="2.53" height="15.67"/><path d="M169.92,79.23c0,.57-.08,1.08-.22,1.56s-.41.86-.78,1.19c-.37.32-.84.57-1.45.75-.59.18-1.35.26-2.26.26-.67,0-1.38-.07-2.12-.21s-1.41-.34-2.02-.61l-.34,2.82c.59.16,1.27.28,1.99.38.74.11,1.49.16,2.28.16,1.38,0,2.56-.16,3.51-.49s1.71-.78,2.3-1.37c.58-.58,1-1.27,1.25-2.07.25-.79.38-1.68.38-2.64v-14.4h-2.53v14.68h.01Z"/><rect x="178.58" y="64.55" width="2.53" height="20.7"/><path d="M209.86,87.51c-.47,0-.86.16-1.17.49-.3.33-.46.73-.46,1.17s.16.87.46,1.21c.32.34.7.5,1.17.5s.86-.17,1.13-.5c.29-.34.44-.74.44-1.21s-.15-.84-.44-1.17c-.29-.33-.67-.49-1.13-.49"/><path d="M278.81,83h-8.96v-4.52c0-1.16-.13-2.16-.38-2.99-.26-.83-.62-1.52-1.09-2.04-.46-.54-1.03-.94-1.7-1.19s-1.41-.38-2.24-.38c-.96,0-1.82.15-2.6.45-.78.3-1.45.75-2.02,1.35s-1,1.36-1.31,2.27c-.32.91-.47,1.98-.47,3.23,0,.75-.08,1.37-.24,1.87s-.37.9-.63,1.19-.57.49-.9.61c-.34.12-.69.17-1.04.17h-6.52v-.45c0-2.7-.65-4.97-1.94-6.79-1.29-1.82-3.09-3.1-5.38-3.81.79-.41,1.53-.8,2.23-1.16.69-.36,1.37-.7,2.03-1.06.66-.34,1.31-.7,1.95-1.04s1.33-.7,2.04-1.08v-3.17c-1.06.61-2.08,1.2-3.1,1.78-1.02.59-2.03,1.16-3.03,1.74-1,.57-2.02,1.15-3.02,1.74-1.02.58-2.07,1.16-3.14,1.74v2.32c1.64.17,3.01.54,4.13,1.13,1.12.58,2.03,1.29,2.72,2.12.7.83,1.2,1.77,1.5,2.81.32,1.03.46,2.08.46,3.17h-16.54v-10.74h-2.53v10.74h-10.33v-10.74h-2.53v10.74h-4.62c-1.69,0-3.07-.16-4.17-.49-1.08-.32-1.94-.77-2.57-1.35-.63-.59-1.07-1.28-1.31-2.06-.25-.79-.37-1.68-.37-2.62,0-.79.05-1.52.17-2.19s.28-1.36.51-2.07l-2.8.57c-.15.59-.28,1.27-.4,2.02-.12.74-.17,1.41-.17,2.02,0,1.28.2,2.43.58,3.47.38,1.03,1,1.91,1.83,2.65.83.73,1.93,1.31,3.27,1.7,1.35.41,2.98.61,4.89.61h45.78c1.15,0,2.06-.25,2.72-.75s1.13-1.15,1.4-1.93c.45.79,1.12,1.44,2,1.93.88.5,2.12.75,3.72.75h16.63v-20.7h-2.55v18.47-.03ZM267.32,83h-2.11c-1.54,0-2.66-.37-3.4-1.12-.73-.75-1.08-1.93-1.08-3.55,0-.62.07-1.19.18-1.71.13-.53.32-.99.59-1.38s.62-.71,1.04-.94c.42-.22.94-.34,1.54-.34.53,0,.99.11,1.4.32.41.21.74.5,1.02.87.28.36.47.79.62,1.28s.21,1.02.21,1.56v5.04h-.01Z"/><path d="M226.35,69.93c.49,0,.9-.17,1.21-.53.32-.34.49-.77.49-1.25s-.17-.91-.49-1.25c-.32-.34-.73-.53-1.21-.53s-.9.18-1.2.53c-.33.36-.49.77-.49,1.25s.16.91.49,1.25c.32.36.73.53,1.2.53"/><path d="M230.67,69.95c.49,0,.88-.17,1.2-.53.32-.36.47-.78.47-1.27s-.16-.9-.47-1.24c-.3-.34-.71-.51-1.2-.51s-.9.17-1.23.51-.49.75-.49,1.24.16.91.49,1.27.75.53,1.23.53"/><rect x="287.75" y="64.55" width="2.53" height="20.7"/><path d="M164.6,90.97c-.26-.26-.4-.57-.4-.9s.12-.61.36-.79c.28-.24.78-.3,1.4-.26.08,0,.17,0,.25.03h.2l.32-1.27-.25-.03c-.13-.01-.26-.03-.4-.04-1.19-.11-2.04.08-2.7.58-.53.4-.79.94-.79,1.62,0,.37.05.67.16.88.01.05.04.11.07.2.05.15.11.29.16.41h-1.71v1.53h5.83v-1.54h-1.19c-.63,0-1.07-.13-1.33-.4"/><path d="M375.87,99c-.08-.09-.17-.18-.25-.29-5.05-5.9-9.75-12.19-13.98-18.7-6.71,8.1-14.23,15.5-22.46,22.05-6.67,5.33-13.8,10.1-21.33,14.26,7.52,4.15,14.65,8.93,21.33,14.26,6.7-4.33,13.1-9.09,19.14-14.26,6.25-5.36,12.1-11.16,17.54-17.32"/><path d="M360.42,118.19c-.09.08-.18.17-.29.25-5.91,5.05-12.2,9.75-18.7,13.98,8.1,6.71,15.5,14.23,22.05,22.46,5.33,6.67,10.1,13.8,14.26,21.32,4.16-7.52,8.93-14.65,14.26-21.32-4.33-6.71-9.09-13.1-14.26-19.14-5.36-6.25-11.16-12.11-17.32-17.56"/><path d="M416.29,102.06c-6.7,4.33-13.11,9.09-19.14,14.26-6.25,5.36-12.1,11.15-17.54,17.32.08.09.17.18.25.29,5.05,5.91,9.75,12.19,13.98,18.7,6.71-8.1,14.23-15.5,22.46-22.05,6.67-5.32,13.81-10.1,21.32-14.26-7.52-4.15-14.65-8.93-21.32-14.26"/><path d="M395.06,114.45c.09-.08.18-.17.29-.25,5.91-5.05,12.2-9.75,18.7-13.98-8.1-6.71-15.5-14.23-22.05-22.46-5.33-6.67-10.1-13.8-14.26-21.32-4.16,7.52-8.93,14.65-14.26,21.32,4.33,6.71,9.09,13.1,14.26,19.14,5.34,6.25,11.15,12.11,17.32,17.56"/></svg>