<?xml version="1.0" encoding="UTF-8"?><svg id="Layer_1" xmlns="http://www.w3.org/2000/svg" viewBox="0 0 500 250"><path d="M144.55,158.9c22.69-4.31,45.14-9.76,68.04-13.16,49.52-7.36,99.82-9.73,149.83-6.92.46,7.77-8.35,4.71-12.7,5.63-.94.2-.87,1.85-1.56,2.23-7.44,4.21-29.14.63-37.95,2.3-2.72.51-3.93,2.88-7.89,3.35-17.25,2.11-39.82-.18-58.46,1.11-30.81,2.15-61.37,7.68-92,11.38-3.84,1.04,1.32,4.77,2.1,6.58,3.65,8.39-13.73-4.06-14.76-4.18l-19.53,3.05c-.92-5.87,14.64-6.13,14.58-8.43-12.53-11.32-22.13-25.75-28.07-41.55l4.51-1.74-1.11-2.18c1.53-2.08,28.08.69,25.33-12.43-2.45-11.65-34.7-19.19-45.02-19.19-6.29,0-13.22,2.78-19.67,2.35-2.88-2.59,11.79-11.74,13.84-12.57,16.07-6.54,49.57,5.42,57.91,21.18,5.88,11.12,1.02,20.81-10.76,23.72-2.8.69-6.23-.75-8.11,1.94l21.45,37.53h.03Z"/><path d="M219.72,138.8l-.03-8.98c-20.08,13.32-30.29,3.27-21.54-18.74,5.49-13.81,16.55-21.5,27.16-7.11.04-9.54,1.78-19.13,2.31-28.61.32-5.59-.45-11.33-.05-16.92.34-4.74,2.18-3.14,4.95-.44,12.7,12.37,7.62,26.79,3.72,41.71-2.03,7.8-8.8,30.89-12.7,36.75-.94,1.41-1.86,2.72-3.83,2.33h.01ZM215.21,105.1c-6.78-.21-11.57,19.13-8.32,21.46,5.59,4.04,16.49-5.05,16.21-11.36-7.24.99-9.88-3.68-7.87-10.12h-.01Z"/><path d="M84.85,186.01l-3.46-.7c-1.62-6.25-8.2-7.57-8.85-14.61-.67-7.25,7.02-25.01,10.22-32.29,2.43-5.53,23.57-46.75,26.25-46.77l1.74,3.88c-4.68,13.26-9.88,26.42-14.1,39.93-5.03,16.11-10.47,33.89-11.81,50.57Z"/><path d="M282.51,92.87c3.84,8.38,14.48,15.88,12.46,26.25-1.38,7.14-17.03,12.85-23.6,10.16-1.85-1.37-.54-1.69.59-2.81,6.6-6.54,12.86-8.89,5.61-20.22-5.95,5.78-21.67,26.09-30.31,24.76-7.22-1.11-5.01-22.62-3.46-28.19,1.44-5.13,2.43-8.13,8.52-6.2,9.5,3.01-.17,13.52-1.06,20.42-.21,1.68-1.31,7.93,1.54,7.16,2.59-.77,10.18-8.76,12.4-11.2,2.98-3.3,12.98-19.06,13.98-19.73,1-.66,2.18-.79,3.28-.38h.03Z"/><path d="M179.27,132.07l9.55-5.61c2.1,3.14-2.36,5.16-3.94,7.29-1.15,1.54-1.28,3.59-2.76,5.12-4.15,4.27-12.76,5.3-13.53-2.3-8.73,10.42-25.63,12.41-22.77-5.92,1.38-8.88,17.21-36.62,27.81-22.19l2.97-6.67,7.77,4.45-5.09,25.84h0ZM170.26,109.59c-2.14-.53-2.16.79-3.17,1.89-5.61,6.15-11.37,16.61-9.11,25.01,2.4,1.69,9.56-3.17,10.58-5.57.32-.74,2.7-12.93,2.77-14.18.15-2.57-.95-4.67-1.07-7.15h0Z"/><path d="M386.04,115.21c3.26-2.49,9.04-16,13.89-14.54,2.07.62,9.29,15.8,11.46,18.95,2.02,2.93,11.59,9.93,8.46,13.94-1.81,2.31-9.88,2.68-12.52.24-3.55-3.26-8.72-21.05-8.94-26.46l-12.9,20.23c-15.01,12.94-9.95-29.18-2-31.31,3.6-.96,8.3,2.07,8.15,5.88-.22,5.9-6.5,7.28-5.59,13.06h0Z"/><path d="M357.69,116.11c2.31-3.9-5.46-12.24.79-15.49,4.05,2.15,8.13,14.69,5.69,18.03-6.49,1.27-10.35,7.77-16.99,8.84-8.1,1.29-11.99-.55-10.34-9.22.73-3.83,11.48-23.06,14.29-25.85,2.27-2.26,4.52-1.7,7.4-1.52l1.7,2.39c-5.43,7.41-8.59,15.99-11.12,24.76l2.65,1.69c.55-.01,5.76-3.34,5.94-3.64h0Z"/><path d="M305.1,127.57l.7-3.46c9.73-2.85,9.89-12.11,6.03-20.14-2.52.58-9.27,8.71-11.21,6.74-1.11-7.02,5.91-8.59,9.5-13.52,1.71-2.35,4.04-11.37,9.01-10.06,4.37,1.13-1.09,5.14-1.48,6.42-2.99,10.12,20.43,15.7,8.3,28.46-5.13,5.39-13.86,6.08-20.85,5.57h.01Z"/><path d="M366.93,139.93h21.91c6.17,0,10.83,3.9,2.81,7.31-11.62,4.92-13.44-2.15-23.62-3.34l-1.09-3.96h0Z"/><path d="M255.68,86c.07-2.37-.28-4.84.09-7.2,2.73-17.6,21.34.96-.09,7.2Z"/></svg>