<?xml version="1.0" encoding="UTF-8"?><svg id="Layer_1" xmlns="http://www.w3.org/2000/svg" viewBox="0 0 500 250"><path d="M185.4,160.98l-12.65-27.16c-3.65,7.56-6.77,15.49-11.33,22.57-3.81,5.91-8.19,11.15-15.97,9.96-1.24-.18-7.12-1.75-7.43-2.89l7.51-12.76c.46-.28,2.69.3,3.42.34,11.58.71,17.49-14.22,21.75-22.67l.05-.61-11.19-24.38,13.74-7.04,18.74,40.64,4.5-9.19-10.17-23.31,13.07-6.65,27.77,61.68.34,1.25-16.08-.21-12.58-27.5-4.46,9.62,7.82,18.3h-16.86,0Z"/><path d="M259.42,154.24h-11.9c-1.49-1.25-1.91-3.17-2.62-4.87-3.31,3.02-9.26,6.89-13.84,4.84-9.14-4.06-10.88-17.82-3.59-24.52,4.63-4.25,11.13-4.59,15.78-7.64.5-.33,1.57-1.29,1.7-1.86.59-2.6-1.25-3.3-3.42-3.43-5.82-.37-10.46,3.59-14.71,6.94.71-3.42,1.4-9.76,4.88-11.52,4.37-2.2,14.6-3.42,18.98-1.38,4.05,1.87,6.23,5.82,6.5,10.17.55,8.85-.74,18.6,0,27.34.08,1,.42,2.2.79,3.14.4.99,1.07,1.78,1.45,2.76v.03ZM244,128.64c-1.82-1.94-5.9,1.27-7.16,2.74-2.64,3.09-3.76,8.24-2.81,12.19,1.29,5.34,8.48,3.36,10.17-.34,1.09-2.39.69-9,.42-11.75-.07-.73-.18-2.37-.62-2.85h0Z"/><path d="M354.18,109.54c4.52-.38,12.46,6.74,14.35,10.63,1.82,3.75,2.27,15.55,1.57,19.69-1.2,7.08-12.11,16.71-19.44,15.04-4.58-1.04-11.08-6.03-13.14-10.28-1.73-3.57-1.68-12.21-1.48-16.33.17-3.52.53-8.4,2.99-11.05,2.52-2.69,11.52-7.4,15.14-7.72h0ZM352.86,116.26c-3.27.59-4.19,5.98-4.45,8.67-.47,5.18-.58,14.81,1.12,19.67,1.32,3.76,4.52,5.08,7.12,1.49,3.1-4.27,2.4-17.61,1.66-22.83-.37-2.62-2-7.62-5.46-7h0Z"/><path d="M400.69,100.96l12.74-4.77-.18,13.86h5.8l-1.31,3.93h-4.31v35.68c0,.38.58,1.95.78,2.41.37.83.9,1.5,1.48,2.18h-11.15c-.25,0-1.27-1.06-1.48-1.33-3.09-3.97-2.33-13.98-2.35-18.98-.03-6.65,0-13.31,0-19.96h-6.74l1.31-3.56h5.16l.28-.28v-9.18h-.03Z"/><path d="M387.19,96.19v13.86h5.8l-1.5,3.93h-4.31v35.3c0,.36.54,2.03.71,2.47.38.98,1,1.62,1.53,2.49h-11.15c-.08,0-.98-.8-1.11-.95-2.27-2.47-2.61-8.43-2.74-11.69-.3-7.97-.16-16.74,0-24.75.01-.98.2-1.91.2-2.89h-6.94l1.58-3.69c.08,0,.15.15.18.15h4.87l.28-.28v-9.18l12.56-4.77h.04Z"/><path d="M272.82,110.61l1.5,2.81c1.29-.88,2.39-2.1,3.9-2.65,3.42-1.25,7.77-.34,9.88,2.74l-4.99,7.76c-2.69-1.79-6.08-2.23-8.69-.04v26.37c.3,2.4.87,4.76,2.44,6.65h-11.33c-2.9-2.12-3.17-5.75-3.28-9.07-.34-9.8.69-20.33.01-29.98-.12-1.62-.54-3.26-1.5-4.58h12.08-.03Z"/><path d="M301.48,110.61l1.5,2.81c1.29-.88,2.39-2.1,3.9-2.65,3.42-1.25,7.77-.34,9.88,2.74l-4.99,7.76c-2.69-1.79-6.08-2.23-8.69-.04v26.37c.3,2.4.87,4.76,2.44,6.65h-11.33c-.54,0-1.87-2.19-2.12-2.74-.79-1.71-1.07-3.89-1.16-5.76-.47-10.3.36-20.96,0-31.3-.16-1.4-.63-2.73-1.5-3.84h12.08-.01Z"/><path d="M329.77,110.61c2.39,2.85,1.85,6.07,1.97,9.47.34,9.52.15,19.1.2,28.65.2.96.46,2,.84,2.9.45,1.08,1.2,1.93,1.58,2.99l-11.45-.11c-2.47-1.6-3.02-5.3-3.18-8.03-.42-7.48-.03-15.85,0-23.43.01-4.12.9-8.63-1.12-12.44h11.16Z"/><path d="M77.96,106.86l8.24,16.67c4.06,11.04-5.91,19.72-16.77,15.45-.73-.29-3.18-1.5-3.47-2.15-.21-.47-.45-2.62-.49-3.26-.66-10.84,3.81-20.27,12.46-26.7h.01Z"/><path d="M120.59,145.26l-19.48-43.08c11,1.73,19.63,9.99,22.58,20.6,2.03,7.32,1.42,16.18-3.09,22.48h-.01Z"/><path d="M71.12,147.87h2.9c1.07,0,4.01-1,5.09-1.46,5.76-2.49,10.31-7.93,11.03-14.27l11.3,25.34c-2,4.13-8.03,3.46-11.81,2.7-6.54-1.31-13.89-5.42-17.73-10.93-.28-.41-.7-.88-.78-1.37h-.01Z"/><path d="M110.29,156.3l-24.09-52.63-.07-.73c1.36-.7,2.82-1.37,4.37-.75l23.2,50.41c.33,1.29-2.15,3.52-3.42,3.69Z"/></svg>