<?xml version="1.0" encoding="UTF-8"?><svg id="Layer_1" xmlns="http://www.w3.org/2000/svg" viewBox="0 0 500 250"><path d="M148.72,102.69c-2.32-3.4-5.41-6.03-9.42-7.87-4.01-1.85-8.64-2.78-13.89-2.78s-12.35,1.54-17.45,4.63c-4.95,3.09-8.34,7.1-10.2,12.35l13.74,6.49c1.08-2.78,2.78-4.95,5.09-6.63,2.32-1.7,4.95-2.47,8.03-2.47s5.71.78,7.57,2.32c1.85,1.54,2.78,3.55,2.78,5.87v1.7l-17.29,2.78c-7.41,1.24-12.97,3.55-16.67,6.95-3.71,3.4-5.55,7.72-5.55,12.97s2,10.04,5.87,13.28c3.86,3.24,9.26,4.79,15.91,4.79s14.05-2.47,18.68-7.25v5.87h16.05v-41.07c0-4.47-1.08-8.34-3.4-11.74l.16-.16h-.01ZM134.98,130.79c0,3.86-1.24,7.1-3.86,9.72s-6.03,4.01-10.34,4.01-3.86-.62-5.41-1.7c-1.38-1.08-2.16-2.47-2.16-4.47s.62-3.71,2-4.79c1.24-1.08,3.24-1.85,5.55-2.32l14.21-2.47v2h.01ZM161.07,70.57v17.13h17.13v-17.13h-17.13ZM161.07,93.27v62.38h17.13v-62.38h-17.13ZM247.07,107.63c-2.93-4.79-7.1-8.64-12.04-11.58-4.95-2.78-10.66-4.17-16.83-4.17s-11.74,1.38-16.83,4.17c-5.09,2.78-9.11,6.63-12.04,11.58-2.93,4.79-4.47,10.5-4.47,16.83s1.54,11.74,4.47,16.67c2.93,4.95,7.1,8.8,12.04,11.58,2.62,1.38,5.41,2.62,8.34,3.24v-16.83c-1.08-.62-2-1.54-2.78-2.47-2.93-3.24-4.33-7.25-4.33-12.35s1.38-9.11,4.33-12.35c2.93-3.24,6.79-4.79,11.42-4.79s8.34,1.54,11.26,4.79c2.93,3.24,4.33,7.41,4.33,12.35s-1.38,9.11-4.33,12.35c-.92,1.08-2,1.85-3.09,2.62v16.67c2.93-.78,5.87-1.85,8.49-3.24,5.09-2.78,9.11-6.63,12.04-11.58,2.93-4.95,4.47-10.5,4.47-16.67s-1.54-11.88-4.47-16.83h.01ZM258.03,70.57v85.08h17.13v-85.08h-17.13ZM340.32,107.01c-2.47-4.63-5.87-8.34-10.5-10.96-4.63-2.78-10.2-4.17-16.83-4.17s-11.26,1.38-16.05,4.17c-4.79,2.78-8.49,6.63-11.26,11.58-2.78,4.79-4.17,10.5-4.17,16.67s1.39,11.42,4.01,16.37c2.62,4.95,6.49,8.96,11.26,11.74,4.95,2.93,10.66,4.47,17.29,4.47s12.04-1.38,16.83-4.17c4.79-2.78,8.18-6.49,10.04-10.96l-13.74-6.49c-1.24,2.16-2.93,3.86-5.09,4.95-2.16,1.24-4.79,1.85-7.87,1.85s-7.57-1.24-10.34-3.55c-2.62-2.32-4.17-5.41-4.63-9.42h43.54c.3-.78.46-1.85.62-3.09,0-1.24.16-2.32.16-3.55,0-5.87-1.24-10.96-3.55-15.59l.3.16h-.01ZM299.87,116.73c.78-3.55,2.47-6.33,4.79-8.18,2.32-1.85,5.09-2.78,8.49-2.78s6.33,1.08,8.64,3.09c2.32,2,3.55,4.79,4.01,8.03h-25.93v-.16ZM389.88,138.81c-2.47,1.85-5.55,2.78-8.96,2.78s-8.18-1.54-11.12-4.79c-2.93-3.24-4.33-7.25-4.33-12.35s1.39-9.11,4.33-12.35c2.93-3.24,6.63-4.79,11.12-4.79s6.33.92,8.8,2.78c2.62,1.85,4.33,4.33,5.41,7.41l14.83-6.33c-1.24-3.86-3.24-7.25-6.03-10.04-2.78-2.93-6.17-5.09-10.2-6.63-4.01-1.54-8.34-2.32-12.97-2.32s-11.88,1.38-16.83,4.17c-5.09,2.78-8.96,6.63-11.88,11.58s-4.33,10.5-4.33,16.67,1.54,11.74,4.47,16.67c2.93,4.95,6.95,8.8,11.88,11.74,4.95,2.78,10.66,4.33,16.83,4.33s9.11-.78,12.97-2.47c4.01-1.7,7.41-3.86,10.2-6.79s4.79-6.17,5.87-9.88l-14.83-6.49c-1.08,3.09-2.78,5.55-5.41,7.41l.16-.3v-.03Z"/></svg>