<?xml version="1.0" encoding="UTF-8"?>
<svg id="Layer_1" xmlns="http://www.w3.org/2000/svg" version="1.1" viewBox="0 0 892.8 910.5">
  <!-- Generator: Adobe Illustrator 30.0.0, SVG Export Plug-In . SVG Version: 2.1.1 Build 123)  -->
  <defs>
    <style>
      .st0 {
        fill: #d91c2a;
      }
    </style>
  </defs>
  <path class="st0" d="M687.5,523c-57.3,41.2-89.4,117.5-95.3,186.2h-8.7c-9.2-65.5-34.4-134.3-87.8-176.3-71.7-56.4-201.9-60.6-289.9-63.1-68.7-1.9-137.5,1.4-205.8,3-.1,197,140.1,372.1,329,422.2,281.6,74.6,560.4-131,563.7-422.2-72-2.5-145.5,7.2-205.2,50.1h0Z"/>
  <path class="st0" d="M115.7,439.6h145.6c41-2,81.6-6.1,121.4-14.2,122.5-24.9,185-101.2,200.7-223.8h8.7c5.8,69.1,38.1,144.6,95.3,186.2,59,42.9,133.7,52.8,205.2,50.1,1.7-217.2-173.1-407.6-386.9-434.3C276.3-25.1,66.2,121.6,13,335.6,4.7,368.8.3,403.6,0,439.6h115.7Z"/>
</svg>